<svg width="22" height="22" viewBox="0 0 22 22" fill="none" xmlns="http://www.w3.org/2000/svg">
<path d="M10.6788 0.0102901C10.3402 0.0429478 9.98771 0.140915 9.72377 0.276697C9.13688 0.579197 8.69583 1.17045 8.52393 1.88888C8.43017 2.27732 8.43364 2.15873 8.42669 5.42607L8.41975 8.45623H5.44705C2.22779 8.45623 2.25384 8.45623 1.851 8.54904C1.15124 8.71404 0.567809 9.14373 0.277833 9.71092C0.0798846 10.1011 -0.017353 10.5944 0.00521998 11.1151C0.0347385 11.7992 0.276096 12.3595 0.736239 12.815C1.08352 13.157 1.45684 13.3633 1.94303 13.4767C2.29725 13.5609 2.26079 13.5609 5.43837 13.5609H8.41975L8.42669 16.5894C8.43364 19.8584 8.43017 19.7398 8.52393 20.1283C8.69757 20.8519 9.12298 21.419 9.71856 21.7215C9.93388 21.8315 10.1509 21.902 10.4166 21.9519C10.7083 22.0069 11.2744 22.0069 11.5678 21.9519C12.0887 21.8556 12.4603 21.6648 12.8059 21.3228C13.2122 20.9172 13.4396 20.4445 13.5369 19.8C13.5647 19.6195 13.5681 19.3359 13.5733 16.5808L13.5803 13.5609H16.5617C19.84 13.5609 19.7722 13.5626 20.1924 13.4561C20.887 13.279 21.434 12.8545 21.7309 12.2564C21.9931 11.7322 22.0712 10.9828 21.9306 10.3211C21.7865 9.63013 21.361 9.08357 20.7203 8.76217C20.5119 8.6556 20.3904 8.61263 20.1438 8.55076C19.7653 8.45623 19.7775 8.45623 16.553 8.45623H13.5803L13.5733 5.42607C13.5681 2.73795 13.5647 2.37701 13.5386 2.21373C13.4362 1.5417 13.1861 1.04842 12.7347 0.618729C12.4152 0.31451 12.0523 0.137478 11.573 0.0498219C11.3855 0.0154476 10.8681 -0.00689697 10.6788 0.0102901Z" fill="#696969"/>
</svg>
